<svg width="18" height="18" viewBox="0 0 18 18" fill="none" xmlns="http://www.w3.org/2000/svg">
<path d="M16.4538 7.50145C16.1159 4.78625 13.9637 2.63414 11.2485 2.29624C10.8375 2.24509 10.5 2.58579 10.5 3V7.87503C10.5 8.08211 10.6679 8.25003 10.875 8.25003H15.75C16.1642 8.25003 16.505 7.91253 16.4538 7.50145Z" fill="#001F60"/>
<path d="M9 3.375C5.47919 3.375 2.625 6.22918 2.625 9.75002C2.625 13.2708 5.47919 16.125 9 16.125C12.5208 16.125 15.375 13.2708 15.375 9.75002C15.375 9.54287 15.2071 9.37502 15 9.37502H9.75C9.54292 9.37502 9.375 9.2071 9.375 9.00002V3.75C9.375 3.54289 9.20708 3.375 9 3.375Z" fill="#001F60"/>
</svg>
