<svg width="18" height="18" viewBox="0 0 18 18" fill="none" xmlns="http://www.w3.org/2000/svg">
<path fill-rule="evenodd" clip-rule="evenodd" d="M15 0H3V1.5H15V0ZM15 18V16.5H3V18H15ZM3 3H15C15.825 3 16.5 3.675 16.5 4.5V13.5C16.5 14.325 15.825 15 15 15H3C2.175 15 1.5 14.325 1.5 13.5V4.5C1.5 3.675 2.175 3 3 3ZM9 5.0625C9.93 5.0625 10.6875 5.82 10.6875 6.75C10.6875 7.68 9.93 8.4375 9 8.4375C8.07 8.4375 7.3125 7.68 7.3125 6.75C7.3125 5.82 8.07 5.0625 9 5.0625ZM5.25 11.625V12.75H12.75V11.625C12.75 10.3725 10.2525 9.75 9 9.75C7.7475 9.75 5.25 10.3725 5.25 11.625Z" fill="#001F60"/>
</svg>
