<svg width="18" height="18" viewBox="0 0 18 18" fill="none" xmlns="http://www.w3.org/2000/svg">
<path fill-rule="evenodd" clip-rule="evenodd" d="M1.5 2.25H16.5C17.325 2.25 18 2.925 18 3.75L17.9925 14.25C17.9925 15.075 17.325 15.75 16.5 15.75H1.5C0.675 15.75 0 15.075 0 14.25V3.75C0 2.925 0.675 2.25 1.5 2.25ZM8.25 6.75C8.25 5.505 7.245 4.5 6 4.5C4.755 4.5 3.75 5.505 3.75 6.75C3.75 7.995 4.755 9 6 9C7.245 9 8.25 7.995 8.25 6.75ZM1.5 13.5V12.75C1.5 11.25 4.5 10.425 6 10.425C7.5 10.425 10.5 11.25 10.5 12.75V13.5H1.5ZM14.6175 10.5H13.3875C13.2225 10.0275 13.125 9.525 13.125 9C13.125 8.475 13.2225 7.9725 13.3875 7.5H14.6175L15.75 6L14.2575 4.5075C13.275 5.2425 12.5475 6.285 12.21 7.5C12.075 7.98 12 8.4825 12 9C12 9.5175 12.075 10.02 12.21 10.5C12.5475 11.7075 13.275 12.7575 14.2575 13.4925L15.75 12L14.6175 10.5Z" fill="#001F60"/>
</svg>
