<svg width="18" height="18" viewBox="0 0 18 18" fill="none" xmlns="http://www.w3.org/2000/svg">
<path fill-rule="evenodd" clip-rule="evenodd" d="M3 2.25C3 1.425 3.675 0.75 4.5 0.75C5.325 0.75 6 1.425 6 2.25C6 3.075 5.325 3.75 4.5 3.75C3.675 3.75 3 3.075 3 2.25ZM7.5 15.75C7.5 14.925 8.175 14.25 9 14.25C9.825 14.25 10.5 14.925 10.5 15.75C10.5 16.575 9.825 17.25 9 17.25C8.175 17.25 7.5 16.575 7.5 15.75ZM4.5 5.25C3.675 5.25 3 5.925 3 6.75C3 7.575 3.675 8.25 4.5 8.25C5.325 8.25 6 7.575 6 6.75C6 5.925 5.325 5.25 4.5 5.25ZM3 11.25C3 10.425 3.675 9.75 4.5 9.75C5.325 9.75 6 10.425 6 11.25C6 12.075 5.325 12.75 4.5 12.75C3.675 12.75 3 12.075 3 11.25ZM13.5 3.75C14.325 3.75 15 3.075 15 2.25C15 1.425 14.325 0.75 13.5 0.75C12.675 0.75 12 1.425 12 2.25C12 3.075 12.675 3.75 13.5 3.75ZM7.5 11.25C7.5 10.425 8.175 9.75 9 9.75C9.825 9.75 10.5 10.425 10.5 11.25C10.5 12.075 9.825 12.75 9 12.75C8.175 12.75 7.5 12.075 7.5 11.25ZM13.5 9.75C12.675 9.75 12 10.425 12 11.25C12 12.075 12.675 12.75 13.5 12.75C14.325 12.75 15 12.075 15 11.25C15 10.425 14.325 9.75 13.5 9.75ZM12 6.75C12 5.925 12.675 5.25 13.5 5.25C14.325 5.25 15 5.925 15 6.75C15 7.575 14.325 8.25 13.5 8.25C12.675 8.25 12 7.575 12 6.75ZM9 5.25C8.175 5.25 7.5 5.925 7.5 6.75C7.5 7.575 8.175 8.25 9 8.25C9.825 8.25 10.5 7.575 10.5 6.75C10.5 5.925 9.825 5.25 9 5.25ZM7.5 2.25C7.5 1.425 8.175 0.75 9 0.75C9.825 0.75 10.5 1.425 10.5 2.25C10.5 3.075 9.825 3.75 9 3.75C8.175 3.75 7.5 3.075 7.5 2.25Z" fill="#001F60"/>
</svg>
