<svg width="18" height="18" viewBox="0 0 18 18" fill="none" xmlns="http://www.w3.org/2000/svg">
<path d="M15.4389 12.8666C15.7707 11.0509 15.7915 9.19193 15.5006 7.3692L15.4525 7.06812C15.3271 6.28259 14.6496 5.70459 13.8541 5.70459H7.31944C7.29486 5.70459 7.27493 5.68466 7.27493 5.66008C7.27493 4.91583 6.6716 4.3125 5.92735 4.3125H4.20868C3.38128 4.3125 2.68436 4.93074 2.58571 5.75224L2.38135 7.45408C2.16859 9.22582 2.22349 11.0195 2.54424 12.775C2.67513 13.4914 3.27426 14.0284 4.00064 14.0803L5.13615 14.1616C7.70875 14.3456 10.2912 14.3456 12.8637 14.1616L14.0922 14.0737C14.7639 14.0256 15.3179 13.529 15.4389 12.8666Z" fill="#001F60"/>
</svg>
