<svg width="21" height="21" viewBox="0 0 21 21" fill="none" xmlns="http://www.w3.org/2000/svg">
<path fill-rule="evenodd" clip-rule="evenodd" d="M2.54688 10.4998C2.54688 14.893 6.10825 18.4544 10.5014 18.4544C14.8946 18.4544 18.456 14.893 18.456 10.4998C18.456 6.10666 14.8946 2.54529 10.5014 2.54529C6.10825 2.54529 2.54688 6.10666 2.54688 10.4998ZM17.0083 10.4998C17.0083 14.0942 14.0944 17.0081 10.5 17.0081C6.90559 17.0081 3.99174 14.0942 3.99174 10.4998C3.99174 6.9054 6.90559 3.99156 10.5 3.99156C14.0944 3.99156 17.0083 6.9054 17.0083 10.4998ZM11.2271 11.9449H11.9497V13.3912H9.05717V11.9449H9.78031V10.4986H9.05717V9.05232H11.2271V11.9449ZM11.2256 7.606C11.2256 8.00538 10.9017 8.32914 10.5022 8.32914C10.1027 8.32914 9.77884 8.00538 9.77884 7.606C9.77884 7.20662 10.1027 6.88286 10.5022 6.88286C10.9017 6.88286 11.2256 7.20662 11.2256 7.606Z" fill="#5B7ED7"/>
</svg>
