<svg width="16" height="16" viewBox="0 0 16 16" fill="none" xmlns="http://www.w3.org/2000/svg">
<path fill-rule="evenodd" clip-rule="evenodd" d="M7.73317 8.59233L1.0665 5.2552C0.799837 5.12172 0.666504 4.92149 0.666504 4.65452C0.666504 4.38755 0.799837 4.18732 0.999837 4.05384L7.6665 0.716713C7.8665 0.649971 8.0665 0.649971 8.2665 0.716713L14.9332 4.05384C15.1998 4.18732 15.3332 4.38755 15.3332 4.65452C15.3332 4.92149 15.1998 5.12172 14.9332 5.2552L8.2665 8.59233C8.19984 8.65907 8.13317 8.65907 7.99984 8.65907C7.8665 8.65907 7.79984 8.65907 7.73317 8.59233ZM13.2 4.65449L7.99997 2.05153L2.79997 4.65449L7.99997 7.25745L13.2 4.65449ZM15.2664 11.0618C15.3998 11.3955 15.2664 11.7959 14.9998 11.9294L8.33309 15.2666C8.19975 15.3333 8.13309 15.3333 7.99975 15.3333C7.86642 15.3333 7.79975 15.3333 7.73309 15.2666L1.06642 11.9294C0.733086 11.7959 0.599753 11.3955 0.799753 11.0618C0.933086 10.7281 1.33309 10.5946 1.66642 10.7948L8.06642 13.9984L14.4664 10.7948C14.6664 10.5946 15.0664 10.7281 15.2664 11.0618ZM14.9998 8.5923C15.2664 8.45881 15.3998 8.05835 15.2664 7.72464C15.0664 7.39093 14.6664 7.25745 14.4664 7.45767L8.06642 10.6613L1.66642 7.45767C1.33309 7.25745 0.933086 7.39093 0.799753 7.72464C0.599753 8.05835 0.733086 8.45881 1.06642 8.5923L7.73309 11.9294C7.79975 11.9962 7.86642 11.9962 7.99975 11.9962C8.13309 11.9962 8.19975 11.9962 8.33309 11.9294L14.9998 8.5923Z" fill="#001F60"/>
<mask id="mask0_103_208" style="mask-type:luminance" maskUnits="userSpaceOnUse" x="0" y="0" width="16" height="16">
<path fill-rule="evenodd" clip-rule="evenodd" d="M7.73317 8.59233L1.0665 5.2552C0.799837 5.12172 0.666504 4.92149 0.666504 4.65452C0.666504 4.38755 0.799837 4.18732 0.999837 4.05384L7.6665 0.716713C7.8665 0.649971 8.0665 0.649971 8.2665 0.716713L14.9332 4.05384C15.1998 4.18732 15.3332 4.38755 15.3332 4.65452C15.3332 4.92149 15.1998 5.12172 14.9332 5.2552L8.2665 8.59233C8.19984 8.65907 8.13317 8.65907 7.99984 8.65907C7.8665 8.65907 7.79984 8.65907 7.73317 8.59233ZM13.2 4.65449L7.99997 2.05153L2.79997 4.65449L7.99997 7.25745L13.2 4.65449ZM15.2664 11.0618C15.3998 11.3955 15.2664 11.7959 14.9998 11.9294L8.33309 15.2666C8.19975 15.3333 8.13309 15.3333 7.99975 15.3333C7.86642 15.3333 7.79975 15.3333 7.73309 15.2666L1.06642 11.9294C0.733086 11.7959 0.599753 11.3955 0.799753 11.0618C0.933086 10.7281 1.33309 10.5946 1.66642 10.7948L8.06642 13.9984L14.4664 10.7948C14.6664 10.5946 15.0664 10.7281 15.2664 11.0618ZM14.9998 8.5923C15.2664 8.45881 15.3998 8.05835 15.2664 7.72464C15.0664 7.39093 14.6664 7.25745 14.4664 7.45767L8.06642 10.6613L1.66642 7.45767C1.33309 7.25745 0.933086 7.39093 0.799753 7.72464C0.599753 8.05835 0.733086 8.45881 1.06642 8.5923L7.73309 11.9294C7.79975 11.9962 7.86642 11.9962 7.99975 11.9962C8.13309 11.9962 8.19975 11.9962 8.33309 11.9294L14.9998 8.5923Z" fill="white"/>
</mask>
<g mask="url(#mask0_103_208)">
<rect width="16" height="16" fill="#001F60"/>
</g>
</svg>
