<svg width="18" height="18" viewBox="0 0 18 18" fill="none" xmlns="http://www.w3.org/2000/svg">
<path d="M7.5 6V10.5L11.025 12.675L11.625 11.775L8.625 9.975V6H7.5Z" fill="#001F60"/>
<path d="M13.44 9C13.4775 9.2475 13.5 9.495 13.5 9.75C13.5 12.675 11.175 15 8.25 15C5.325 15 3 12.675 3 9.75C3 6.825 5.325 4.5 8.25 4.5C8.775 4.5 9.2775 4.575 9.75 4.7175V3.1725C9.27 3.06 8.7675 3 8.25 3C4.5 3 1.5 6 1.5 9.75C1.5 13.5 4.5 16.5 8.25 16.5C12 16.5 15 13.5 15 9.75C15 9.495 14.985 9.2475 14.955 9H13.44Z" fill="#001F60"/>
<path d="M15 3.75V1.5H13.5V3.75H11.25V5.25H13.5V7.5H15V5.25H17.25V3.75H15Z" fill="#001F60"/>
</svg>
