<svg width="17" height="16" viewBox="0 0 17 16" fill="none" xmlns="http://www.w3.org/2000/svg">
<g clip-path="url(#clip0_106_3057)">
<path d="M13.4129 0H4.25V4.798C3.15881 5.01944 2.375 5.97866 2.375 7.09375C2.375 7.58066 2.59888 7.97869 2.81538 8.36359C3.05978 8.79813 3.3125 9.24744 3.3125 9.90625C3.3125 10.6817 2.68166 11.3125 1.90625 11.3125H1.4375V13.1875H0.5V16H16.5V3.08709L13.4129 0ZM13.6875 1.60041L14.8996 2.8125H13.6875V1.60041ZM2.375 12.2029C3.44347 11.9851 4.25 11.0381 4.25 9.90625C4.25 9.00187 3.90759 8.39312 3.6325 7.904C3.45372 7.58616 3.3125 7.33509 3.3125 7.09375C3.3125 6.22659 4.10188 5.52634 5.02769 5.72C5.53863 5.82687 5.97478 6.25747 6.08831 6.76713C6.22206 7.36744 6.08441 7.56097 5.83447 7.91231C5.56144 8.29616 5.1875 8.82184 5.1875 9.90625C5.1875 11.0381 5.99403 11.9851 7.0625 12.2029V13.1875H2.375V12.2029ZM8 15.0625H1.4375V14.125H8V15.0625ZM8.9375 15.0625V13.1875H8V11.3125H7.53125C6.75584 11.3125 6.125 10.6817 6.125 9.90625C6.125 9.12128 6.35497 8.798 6.59841 8.45572C6.89344 8.04094 7.22788 7.57084 7.00338 6.56325C6.80941 5.69259 6.09256 4.98494 5.21962 4.80234C5.20891 4.80009 5.19819 4.79816 5.18747 4.79606V0.9375H12.75V3.75H15.5625V15.0625H8.9375Z" fill="#001F60"/>
<path d="M8.9375 5.6875H14.625V6.625H8.9375V5.6875Z" fill="#001F60"/>
<path d="M8.9375 7.5625H14.625V8.5H8.9375V7.5625Z" fill="#001F60"/>
<path d="M8.9375 9.4375H14.625V10.375H8.9375V9.4375Z" fill="#001F60"/>
<path d="M8.9375 11.3125H14.625V12.25H8.9375V11.3125Z" fill="#001F60"/>
</g>
<defs>
<clipPath id="clip0_106_3057">
<rect width="16" height="16" fill="white" transform="translate(0.5)"/>
</clipPath>
</defs>
</svg>
